####
#
# OBJ File Generated by Meshlab
#
####
# Object cbox_largebox.obj
#
# Vertices: 24
# Faces: 12
#
####
vn 0.000000 1.000000 0.000000
v -0.14 1.2 -0.67
v -0.71 1.2 -0.49
v -0.53 1.2 0.09
v 0.04 1.2 -0.09
vn 0.9550642 0.0 -0.2963992
v -0.14 0.0 -0.67
v -0.14 1.2 -0.67
v 0.04 1.2 -0.09
v 0.04 0.0 -0.09
vn 0.3011314 0.0 0.9535826
v 0.04 0.0 -0.09
v 0.04 1.2 -0.09
v -0.53 1.2 0.09
v -0.53 0.0 0.09
vn -0.9550642 0.0 0.2963992
v -0.53 0.0 0.09
v -0.53 1.2 0.09
v -0.71 1.2 -0.49
v -0.71 0.0 -0.49
vn -0.3011314 0.0 -0.9535826
v -0.71 0.0 -0.49
v -0.71 1.2 -0.49
v -0.14 1.2 -0.67
v -0.14 0.0 -0.67
vn 0.000000 -1.000000 0.000000
v 0.04 0.0 -0.09
v -0.53 0.0 0.09
v -0.71 0.0 -0.49
v -0.14 0.0 -0.67
# 24 vertices, 6 vertices normals

f 1//1 2//1 3//1
f 1//1 3//1 4//1
f 5//2 6//2 7//2
f 5//2 7//2 8//2
f 9//3 10//3 11//3
f 9//3 11//3 12//3
f 13//4 14//4 15//4
f 13//4 15//4 16//4
f 17//5 18//5 19//5
f 17//5 19//5 20//5
f 21//6 22//6 23//6
f 21//6 23//6 24//6
# 12 faces, 0 coords texture

# End of File
